# xmcd
#
# Track frame offsets:
#	150
#	12296
#	39459
#	60869
#	84566
#	105642
#
# Disc length: 1654 seconds
#
# Revision: 1
# Processed by: cddbd v1.5PL3 Copyright (c) Steve Scherf et al.
# Submitted via: EasyCDDAExtractor 6.5.0.3
#
DISCID=3b067406
DTITLE=The Poor Boys - Southbound
DYEAR=1992
DGENRE=Rythm and Blues
TTITLE0=I Ain't Got You
TTITLE1=Help The Poor
TTITLE2=Let It Roll
TTITLE3=Southbound
TTITLE4=Tightrope
TTITLE5=Talk To Your Daughter
EXTD=
EXTT0=
EXTT1=
EXTT2=
EXTT3=
EXTT4=
EXTT5=
PLAYORDER=
